<svg xmlns="http://www.w3.org/2000/svg" viewBox="0 0 400 400" fill="none">
  <rect width="400" height="400" fill="#0F172A"/>
  <!-- Calendar grid -->
  <rect x="60" y="70" width="280" height="260" rx="12" fill="#1E293B" stroke="#3B82F6" stroke-width="2"/>
  <rect x="60" y="70" width="280" height="40" rx="12" fill="#1E3A5F"/>
  <text x="200" y="96" text-anchor="middle" fill="#3B82F6" font-family="sans-serif" font-size="14" font-weight="bold">30 DAYS OF CONTENT</text>
  <!-- Grid cells -->
  <rect x="80" y="126" width="48" height="36" rx="6" fill="#1E3A5F"/>
  <rect x="140" y="126" width="48" height="36" rx="6" fill="#3B82F6" opacity="0.2"/>
  <rect x="200" y="126" width="48" height="36" rx="6" fill="#1E3A5F"/>
  <rect x="260" y="126" width="48" height="36" rx="6" fill="#1E3A5F"/>
  <rect x="80" y="174" width="48" height="36" rx="6" fill="#1E3A5F"/>
  <rect x="140" y="174" width="48" height="36" rx="6" fill="#1E3A5F"/>
  <rect x="200" y="174" width="48" height="36" rx="6" fill="#3B82F6" opacity="0.2"/>
  <rect x="260" y="174" width="48" height="36" rx="6" fill="#1E3A5F"/>
  <rect x="80" y="222" width="48" height="36" rx="6" fill="#3B82F6" opacity="0.2"/>
  <rect x="140" y="222" width="48" height="36" rx="6" fill="#1E3A5F"/>
  <rect x="200" y="222" width="48" height="36" rx="6" fill="#1E3A5F"/>
  <rect x="260" y="222" width="48" height="36" rx="6" fill="#3B82F6" opacity="0.2"/>
  <rect x="80" y="270" width="48" height="36" rx="6" fill="#1E3A5F"/>
  <rect x="140" y="270" width="48" height="36" rx="6" fill="#3B82F6" opacity="0.2"/>
  <rect x="200" y="270" width="48" height="36" rx="6" fill="#1E3A5F"/>
  <rect x="260" y="270" width="48" height="36" rx="6" fill="#1E3A5F"/>
  <!-- Check marks on highlighted cells -->
  <path d="M158 142l4 4 8-8" stroke="#3B82F6" stroke-width="2" stroke-linecap="round"/>
  <path d="M218 190l4 4 8-8" stroke="#3B82F6" stroke-width="2" stroke-linecap="round"/>
  <path d="M98 238l4 4 8-8" stroke="#3B82F6" stroke-width="2" stroke-linecap="round"/>
  <path d="M278 238l4 4 8-8" stroke="#3B82F6" stroke-width="2" stroke-linecap="round"/>
  <path d="M158 286l4 4 8-8" stroke="#3B82F6" stroke-width="2" stroke-linecap="round"/>
</svg>
