<svg xmlns="http://www.w3.org/2000/svg" viewBox="0 0 400 400" fill="none">
  <rect width="400" height="400" fill="#0F172A"/>
  <rect x="60" y="80" width="280" height="240" rx="12" fill="#1E293B" stroke="#3B82F6" stroke-width="2"/>
  <rect x="80" y="100" width="100" height="12" rx="6" fill="#3B82F6"/>
  <rect x="80" y="124" width="240" height="8" rx="4" fill="#334155"/>
  <rect x="80" y="144" width="200" height="8" rx="4" fill="#334155"/>
  <rect x="80" y="172" width="110" height="60" rx="8" fill="#1E3A5F"/>
  <rect x="210" y="172" width="110" height="60" rx="8" fill="#1E3A5F"/>
  <rect x="80" y="248" width="240" height="8" rx="4" fill="#334155"/>
  <rect x="80" y="268" width="180" height="8" rx="4" fill="#334155"/>
  <rect x="80" y="292" width="80" height="12" rx="6" fill="#3B82F6"/>
  <circle cx="135" cy="202" r="14" fill="#3B82F6" opacity="0.3"/>
  <circle cx="265" cy="202" r="14" fill="#3B82F6" opacity="0.3"/>
  <path d="M128 202l4 4 8-8" stroke="#3B82F6" stroke-width="2" stroke-linecap="round" stroke-linejoin="round"/>
  <path d="M258 202l4 4 8-8" stroke="#3B82F6" stroke-width="2" stroke-linecap="round" stroke-linejoin="round"/>
</svg>
